<?xml version="1.0" encoding="utf-8"?>
<!-- Generator: Adobe Illustrator 24.0.0, SVG Export Plug-In . SVG Version: 6.00 Build 0)  -->
<svg version="1.1" id="Layer_1" xmlns="http://www.w3.org/2000/svg" xmlns:xlink="http://www.w3.org/1999/xlink" x="0px" y="0px"
	 viewBox="0 0 256 256" style="enable-background:new 0 0 256 256;" xml:space="preserve">
<style type="text/css">
	.st0{fill:#75B2DC;}
	.st1{fill:#FFFFFF;}
</style>
<g>
	<path class="st0" d="M56.1,0h143.9c31,0,56.1,25.1,56.1,56.1v143.9c0,31-25.1,56.1-56.1,56.1H56.1C25.1,256,0,230.9,0,199.9V56.1
		C0,25.1,25.1,0,56.1,0z"/>
	<path class="st1" d="M82,185.8L82,185.8L73.3,201c-3.2,5.5-10.3,7.4-15.8,4.2c-5.5-3.2-7.4-10.3-4.2-15.8l6.4-11.2l0.6-1.1
		c1.1-1.6,3.8-4.3,9.3-3.8c0,0,12.8,1.4,13.8,8.1C83.4,181.4,83.5,183.6,82,185.8L82,185.8z M206.2,147.1h-27.3
		c-1.9-0.1-2.7-0.8-3-1.2l0,0l-29.2-50.6l0,0l-1.8-2.5c-2.9-4.4-7.4,6.8-7.4,6.8c-5.4,12.5,0.8,26.7,2.9,31L181,201
		c3.2,5.5,10.3,7.4,15.8,4.2c5.5-3.2,7.4-10.3,4.2-15.8l-10.1-17.6c-0.2-0.4-0.5-1.6,1.5-1.6h13.8c6.4,0,11.6-5.2,11.6-11.6
		C217.8,152.3,212.6,147.1,206.2,147.1z M153.2,162.8c0,0,1.5,7.4-4.2,7.4h-5.6v0H48.1c-6.4,0-11.6-5.2-11.6-11.6
		c0-6.4,5.2-11.6,11.6-11.6H74c4.2-0.2,5.2-2.7,5.2-2.7l0,0l33.9-58.6l0,0c0.6-1.1,0.1-2.2,0-2.4L101.9,64
		c-3.2-5.5-1.3-12.6,4.2-15.8c5.5-3.2,12.6-1.3,15.8,4.2l5.2,9l5.2-9c3.2-5.5,10.3-7.4,15.8-4.2s7.4,10.3,4.2,15.8l-47.1,81.6
		c-0.2,0.5-0.3,1.3,1.3,1.4h28.2l0,0.3C134.7,147.4,151,147.6,153.2,162.8z"/>
</g>
</svg>
