<svg xmlns="http://www.w3.org/2000/svg" width="97.705" height="106.016" viewBox="0 0 97.705 106.016">
  <title>ch play</title>
  <g>
    <path d="M58.3,48.414,72.366,35.149,9.841.773A6.522,6.522,0,0,0,6.981,0Z" fill="#75b2dc"/>
    <path d="M.838,3.393A6.548,6.548,0,0,0,0,6.592V99.424a6.549,6.549,0,0,0,.838,3.2l52.6-49.615Z" fill="#75b2dc"/>
    <path d="M94.264,47.188,78.519,38.532,63.174,53.009,78.519,67.484l15.745-8.656A6.642,6.642,0,0,0,94.264,47.188Z" fill="#75b2dc"/>
    <path d="M58.3,57.6,6.981,106.016a6.521,6.521,0,0,0,2.86-.772L72.366,70.867Z" fill="#75b2dc"/>
  </g>
</svg>
