<svg xmlns="http://www.w3.org/2000/svg" width="172.653" height="172.72" viewBox="0 0 172.653 172.72">
  <title>logo</title>
  <g>
    <g>
      <g>
        <path d="M172.65,43.27v86.3q0,43.14-43.2,43.15H43.15Q0,172.72,0,129.57V43.27C0,14.5,14.38,0,43.15,0h86.3C158.21,0,172.65,14.5,172.65,43.27Z" fill="#75b2dc"/>
        <path d="M86.19,132.212A49.418,49.418,0,1,1,135.583,82.82,49.452,49.452,0,0,1,86.19,132.212Zm0-93.48a44.045,44.045,0,1,0,40.487,26.6A44.1,44.1,0,0,0,86.19,38.732Z" fill="#fff"/>
        <polygon points="43.162 65.873 43.088 65.847 43.272 65.109 43.401 65.155 43.162 65.873" fill="#232323"/>
      </g>
      <polygon points="172.653 93.667 172.646 93.667 172.646 90.954 172.653 93.667" fill="#232323"/>
    </g>
    <path d="M132.935,82.824A46.748,46.748,0,1,1,43.281,64.235a125.318,125.318,0,0,0,43.035,7.8,124.217,124.217,0,0,0,42.792-7.752A46.53,46.53,0,0,1,132.935,82.824Z" fill="#fff" stroke="#fff" stroke-miterlimit="10" stroke-width="5.304"/>
  </g>
</svg>
