<svg xmlns="http://www.w3.org/2000/svg" width="172.66" height="172.72" viewBox="0 0 172.66 172.72">
  <title>logoblue</title>
  <g>
    <polygon points="172.66 93.67 172.65 93.67 172.65 90.96 172.66 93.67" fill="#232323"/>
    <path d="M126.61,65.18a123.946,123.946,0,0,1-40.29,6.86A124.634,124.634,0,0,1,45.8,65.13a44.1,44.1,0,0,1,80.81.05Z" fill="#455ea4"/>
    <path d="M129.46,0H43.16C14.38,0,0,14.5,0,43.27v86.3q0,43.14,43.16,43.15h86.3c28.75,0,43.2-14.39,43.2-43.15V93.67h-.01V90.96l.01,2.71V43.27C172.66,14.5,158.21,0,129.46,0ZM86.19,132.21a49.412,49.412,0,1,1,49.4-49.39A49.446,49.446,0,0,1,86.19,132.21Z" fill="#455ea4"/>
  </g>
</svg>
